<svg id="color" enable-background="new 0 0 24 24" height="512" viewBox="0 0 24 24" width="512" xmlns="http://www.w3.org/2000/svg"><path d="m10.842 19.854c.079-.453.295-.868.622-1.197l5.536-5.536v-10.371c0-1.517-1.233-2.75-2.75-2.75h-11.5c-1.517 0-2.75 1.233-2.75 2.75v15.5c0 1.517 1.233 2.75 2.75 2.75h7.89z" fill="#eceff1"/><g fill="#90a4ae"><circle cx="8.5" cy="5" r="2"/><path d="m11.75 12h-6.5c-.414 0-.75-.336-.75-.75v-.5c0-1.517 1.233-2.75 2.75-2.75h2.5c1.517 0 2.75 1.233 2.75 2.75v.5c0 .414-.336.75-.75.75z"/><path d="m12 15h-7c-.553 0-1-.448-1-1s.447-1 1-1h7c.553 0 1 .448 1 1s-.447 1-1 1z"/><path d="m11 18h-6c-.553 0-1-.448-1-1s.447-1 1-1h6c.553 0 1 .448 1 1s-.447 1-1 1z"/></g><path d="m23.487 13.351-1.237-1.237c-.49-.49-1.386-.737-2.298.177l-7.425 7.424c-.108.109-.182.249-.208.4l-.53 3.005c-.09.504.346.958.868.869l3.005-.53c.152-.027.292-.1.4-.209l7.425-7.425c.683-.682.683-1.792 0-2.474z" fill="#7d57c9"/><path d="m22.911 12.775-11.032 10.852c.129.221.369.373.647.373.043 0 .087-.004.131-.011l3.005-.53c.152-.027.292-.1.4-.209l7.425-7.425c.683-.682.683-1.792 0-2.475z" fill="#7d57c9"/><path d="m8.5 0h-5.75c-1.517 0-2.75 1.233-2.75 2.75v15.5c0 1.517 1.233 2.75 2.75 2.75h5.75v-3h-3.5c-.552 0-1-.448-1-1s.448-1 1-1h3.5v-1h-3.5c-.552 0-1-.448-1-1s.448-1 1-1h3.5v-1h-3.25c-.414 0-.75-.336-.75-.75v-.5c0-1.517 1.233-2.75 2.75-2.75h1.25v-1c-1.103 0-2-.897-2-2s.897-2 2-2z" fill="#cdd0d2"/><path d="m8.5 3c-1.103 0-2 .897-2 2s.897 2 2 2z" fill="#7d8f97"/><path d="m8.5 8h-1.25c-1.517 0-2.75 1.233-2.75 2.75v.5c0 .414.336.75.75.75h3.25z" fill="#7d8f97"/><path d="m8.5 13h-3.5c-.552 0-1 .448-1 1s.448 1 1 1h3.5z" fill="#7d8f97"/>
<path d="m8.5 16h-3.5c-.552 0-1 .448-1 1s.448 1 1 1h3.5z" fill="#7d8f97"/></svg>