<?xml version="1.0" encoding="iso-8859-1"?>
<!-- Generator: Adobe Illustrator 19.0.0, SVG Export Plug-In . SVG Version: 6.00 Build 0)  -->
<svg version="1.1" id="Capa_1" xmlns="http://www.w3.org/2000/svg" xmlns:xlink="http://www.w3.org/1999/xlink" x="0px" y="0px"
	 viewBox="0 0 512 512" style="enable-background:new 0 0 512 512;" xml:space="preserve">
<path style="fill:#4c4c4c;" d="M240.52,330.136c0,0,0-2.072,0-24.872c0-30.28,33.88-75.336,100.512-78.448v-21.112
	c-21.64-12.288-36.264-35.504-36.264-62.168c0-39.488,32.008-71.496,71.496-71.496s71.496,32.008,71.496,71.496
	c0,26.664-14.624,49.88-36.264,62.168v21.112C478.12,229.936,512,274.992,512,305.272c0,22.8,0,24.872,0,24.872H240.52V330.136z"/>
<path style="fill:#ddd9ce;" d="M0,439.952c0,0,0-2.072,0-24.872c0-30.28,33.88-75.336,100.512-78.448V315.52
	c-21.64-12.288-36.272-35.496-36.272-62.16c0-39.488,32.008-71.496,71.496-71.496s71.496,32.008,71.496,71.496
	c0,26.664-14.624,49.88-36.264,62.168v21.112c66.632,3.12,100.512,48.168,100.512,78.448c0,22.8,0,24.872,0,24.872H0V439.952z"/>
<g>
</g>
<g>
</g>
<g>
</g>
<g>
</g>
<g>
</g>
<g>
</g>
<g>
</g>
<g>
</g>
<g>
</g>
<g>
</g>
<g>
</g>
<g>
</g>
<g>
</g>
<g>
</g>
<g>
</g>
</svg>
